<svg id="Layer_1" data-name="Layer 1" xmlns="http://www.w3.org/2000/svg" viewBox="0 0 793.69 333.27"><defs><style>.cls-1{fill:#ed1846;}.cls-2{fill:#231f20;}</style></defs><title>fb_profileoutlined</title><path class="cls-1" d="M147.52,123.5q15.47,14,15.47,39T148,202q-15,14.56-46,14.55H66.48V109.48h36.77Q132,109.48,147.52,123.5Zm-2.76,39.45q0-36.77-42.13-36.77H84.56v73.38h20.07q19.45,0,29.8-9.27T144.77,162.94Z"/><path class="cls-1" d="M248.07,183.32H184.18a18.56,18.56,0,0,0,8.12,14.32,28.49,28.49,0,0,0,17.16,5.44q15.32,0,23.29-9.65l9.8,10.72q-13.18,13.64-34.32,13.63-17.16,0-29.18-11.41t-12-30.64q0-19.22,12.26-30.56a41.13,41.13,0,0,1,28.88-11.34q16.62,0,28.26,10t11.64,27.65Zm-63.88-13.48h46.73q0-10.26-6.43-15.78a23.52,23.52,0,0,0-15.86-5.52,27.14,27.14,0,0,0-16.93,5.74A18.55,18.55,0,0,0,184.18,169.84Z"/><path class="cls-1" d="M312.53,192.21q0,11.64-8.43,18.61t-21.6,7A57.86,57.86,0,0,1,264,214.57a55.44,55.44,0,0,1-16.93-9l8.27-13.33q14.25,10.73,27.58,10.72,5.82,0,9.19-2.68a8.35,8.35,0,0,0,3.37-6.82q0-6.13-16.24-11-1.23-.46-1.84-.61-25.43-6.89-25.43-23a21.8,21.8,0,0,1,8.81-18.15q8.81-6.82,22.9-6.82a47.65,47.65,0,0,1,26.66,8.27L304,154.82a38.4,38.4,0,0,0-21.6-6.59,19.71,19.71,0,0,0-10,2.22,7.23,7.23,0,0,0-3.83,6.66q0,4,4,5.82a38.45,38.45,0,0,0,7.74,2.6q5,1.23,8.81,2.45t7.43,2.76a48.26,48.26,0,0,1,7.74,4.29Q312.53,180.56,312.53,192.21Z"/><path class="cls-1" d="M320.71,118.82a10.73,10.73,0,1,1,7.66,3.22A10.46,10.46,0,0,1,320.71,118.82Zm16.09,97.74H319.64v-81.5H336.8Z"/><path class="cls-1" d="M423.9,135.06v71.08q0,21.6-11.72,32.4t-30.1,10.8a53,53,0,0,1-33.24-11.49l8.12-13q11.95,9,24.13,9t19.3-6.28q7.12-6.28,7.12-20.07V197.11a29.22,29.22,0,0,1-11,11.49,30.42,30.42,0,0,1-16,4.29q-16.24,0-26.66-11.34t-10.42-28.19q0-16.85,10.42-28.19t26.58-11.34q16.16,0,26.27,13.33v-12.1Zm-63.58,37.61A25.81,25.81,0,0,0,366.53,190q6.2,7.28,16.7,7.28t17-7q6.51-7,6.51-17.54a25.53,25.53,0,0,0-6.59-17.77,21.89,21.89,0,0,0-17-7.28q-10.42,0-16.62,7.51A26.7,26.7,0,0,0,360.33,172.67Z"/><path class="cls-1" d="M453.12,172.44v44.12H436v-81.5h17.16v14.86a30.91,30.91,0,0,1,27.12-16.09q13.79,0,22.29,8.43t8.5,24.36v49.94H493.87V171.83q0-22.52-18.69-22.52a22.46,22.46,0,0,0-15.47,5.9Q453.12,161.11,453.12,172.44Z"/><path class="cls-2" d="M536.24,115.58a5.39,5.39,0,0,0-2,4.38,4.94,4.94,0,0,0,2.46,4.33q2.46,1.61,11.34,3.8t13.8,6.56q4.91,4.38,4.91,12.77a16.86,16.86,0,0,1-6.3,13.62q-6.3,5.22-16.57,5.22-14.83,0-26.71-11l8.31-10.18q10.09,8.84,18.67,8.84a9.79,9.79,0,0,0,6-1.65,5.3,5.3,0,0,0,2.19-4.47,5.2,5.2,0,0,0-2.32-4.47q-2.32-1.65-9.2-3.35-10.9-2.59-15.94-6.74t-5-13q0-8.89,6.39-13.71t15.94-4.82a38.36,38.36,0,0,1,12.5,2.14,33.51,33.51,0,0,1,10.9,6.07l-7.06,10.18q-8.13-6.16-16.79-6.16A8.4,8.4,0,0,0,536.24,115.58Z"/><path class="cls-2" d="M598.15,115.18v50.37H584.21V115.18H566.53V103.12h49.3v12.06Z"/><path class="cls-2" d="M662.89,103.12v12.41H631.81v12.86h28v11.88h-28v13h32.06v12.33h-46V103.12Z"/><path class="cls-2" d="M725.81,126.25l-16.88,34.12h-8.31l-16.79-34.12v39.3H669.9V103.12h18.85l16.08,34.3L721,103.12h18.76v62.43H725.81Z"/></svg>